<?xml version="1.0" ?><!DOCTYPE svg  PUBLIC '-//W3C//DTD SVG 1.1//EN'  'http://www.w3.org/Graphics/SVG/1.1/DTD/svg11.dtd'><svg height="1988px" style="shape-rendering:geometricPrecision; text-rendering:geometricPrecision; image-rendering:optimizeQuality; fill-rule:evenodd; clip-rule:evenodd" version="1.1" viewBox="0 0 216 216" width="1988px" xml:space="preserve" xmlns="http://www.w3.org/2000/svg" xmlns:xlink="http://www.w3.org/1999/xlink"><defs><style type="text/css">
   <![CDATA[
    .str0 {stroke:#727271;stroke-width:0.906615}
    .fil0 {fill:#FEFEFE}
    .fil2 {fill:#CF002F}
    .fil1 {fill:#F6D300}
   ]]>
  </style></defs><g id="Layer_x0020_1"><g id="_1956890486480"><rect class="fil0 str0" height="215" rx="16" ry="16" width="215"/><rect class="fil1" height="86.7028" width="212.45" x="2" y="65"/><g><path class="fil2" d="M92 110c2,1 42,0 42,0 0,0 9,-12 10,-13 0,0 1,-1 1,-2l-17 0c0,1 -1,2 -1,2 -1,1 -2,2 -2,3 -1,0 -1,1 -2,2 0,0 0,1 -1,1 0,0 0,1 -1,1l-7 0c1,-1 6,-8 7,-9l-17 0 -3 4c-1,1 -2,2 -3,4l-4 5c-1,1 -1,2 -2,2z"/><path class="fil2" d="M43 103c4,0 31,0 33,0 1,1 -5,6 -4,7 1,0 1,0 2,0l13 0c2,-3 6,-5 4,-9 -1,-4 -4,-6 -9,-6l-33 0c-1,0 -6,8 -6,8z"/><path class="fil2" d="M64 112c0,-2 4,-5 4,-7 -1,0 -14,0 -16,0 -1,0 -2,3 -3,4 -1,1 -2,3 -3,4 -1,1 -6,8 -6,8 9,0 18,0 27,0 5,0 8,0 11,-2 3,-2 6,-4 7,-7 -3,0 -19,1 -21,0z"/><path class="fil2" d="M170 121c0,0 1,-1 1,-2 2,-2 4,-5 5,-7l-38 0c-1,1 -1,2 -2,3 -3,4 2,6 6,6l28 0z"/><path class="fil2" d="M139 110l18 0c1,0 8,-10 9,-11l2 -4 -17 0c-1,0 -8,11 -9,11 -1,2 -2,3 -3,4z"/><path class="fil2" d="M109 121c3,0 13,0 16,0 1,0 1,0 1,-1l3 -3c1,-1 1,-2 2,-2 0,-1 1,-2 1,-3l-17 0 -4 7c-1,1 -2,1 -2,2z"/><path class="fil2" d="M85 121c2,0 12,0 16,0 1,0 1,0 1,-1 1,-1 6,-7 6,-8l-17 0 -6 9z"/><path class="fil2" d="M175 119c-1,1 -2,2 -2,2l27 0 0 -2c-1,0 -22,0 -25,0z"/><path class="fil2" d="M41 114c1,0 2,-1 2,-2l-27 0 0 2 25 0z"/><path class="fil2" d="M177 116c0,0 0,0 -1,1 0,0 0,0 0,1l24 0 0 -2 -23 0z"/><path class="fil2" d="M40 118c0,-1 0,-1 1,-2l-25 0 0 2 24 0z"/><path class="fil2" d="M179 112c0,1 -1,2 -1,2l1 0c7,0 14,0 21,0l0 -2 -21 0z"/><path class="fil2" d="M36 121c1,0 1,0 2,-1 0,0 0,0 0,-1l-22 0 0 2 20 0z"/></g></g></g></svg>