<?xml version="1.0" ?><!DOCTYPE svg  PUBLIC '-//W3C//DTD SVG 1.1//EN'  'http://www.w3.org/Graphics/SVG/1.1/DTD/svg11.dtd'><svg height="1988px" style="shape-rendering:geometricPrecision; text-rendering:geometricPrecision; image-rendering:optimizeQuality; fill-rule:evenodd; clip-rule:evenodd" version="1.1" viewBox="0 0 223 223" width="1988px" xml:space="preserve" xmlns="http://www.w3.org/2000/svg" xmlns:xlink="http://www.w3.org/1999/xlink"><defs><style type="text/css">
   <![CDATA[
    .str0 {stroke:#727271;stroke-width:0.936114}
    .fil0 {fill:#FEFEFE}
    .fil1 {fill:#472F8F}
    .fil2 {fill:#F37723}
   ]]>
  </style></defs><g id="Layer_x0020_1"><g id="_1956903023424"><rect class="fil0 str0" height="222" rx="17" ry="17" width="222"/><g><path class="fil1" d="M105 111c10,-1 11,17 2,18 -5,1 -8,-3 -8,-8 -1,-5 2,-9 6,-10zm-54 -7c0,-1 1,-1 0,-1l-16 0 0 -7 18 0 0 -12 -32 0c0,1 0,52 0,53 0,0 0,0 0,0 0,0 0,0 0,0 0,0 0,0 0,1l14 -1 0 -22 14 0c-1,7 -1,10 3,16 2,3 6,6 10,8 6,1 12,0 16,-2 4,-2 8,-7 9,-10l-13 0c0,1 -1,2 -3,3 -4,1 -10,-1 -10,-7l25 0c1,11 11,18 20,16 2,0 5,-2 6,-3 1,-1 1,-1 2,-2l0 4 12 0 0 -54 0 0 -12 0 0 22c-1,-1 -2,-2 -3,-3 -2,0 -3,-1 -4,-1 -7,-1 -12,1 -16,5 -3,3 -3,6 -4,7 -1,-1 -1,-2 -1,-2 -6,-12 -21,-13 -29,-7 -1,0 -2,1 -2,1 -2,1 -2,3 -4,4l0 -6zm11 11c1,-7 11,-8 13,0l-13 0z"/><path class="fil2" d="M156 104l15 16c-1,2 -14,16 -14,17 -1,0 -1,0 -1,-1 0,0 0,-9 0,-11l-17 0 0 -10 17 0c1,-2 0,-11 0,-11zm16 0c0,-1 1,0 0,-1l-16 0c-6,0 -11,0 -17,0l0 -7 17 0c0,-1 0,-11 0,-12l-30 0 0 0 0 54 46 0c1,-2 6,-7 7,-9 1,1 7,8 8,8l16 1c-1,-1 -15,-17 -16,-18l4 -4c2,-1 11,-12 11,-13 -2,0 -14,0 -15,1 -1,0 -6,7 -8,7 0,0 -6,-7 -7,-7z"/></g></g></g></svg>